<svg version="1.1" id="Layer_1" xmlns="http://www.w3.org/2000/svg" xmlns:xlink="http://www.w3.org/1999/xlink" x="0px" y="0px"
	 width="100%" viewBox="0 0 816 1024" enable-background="new 0 0 816 1024" xml:space="preserve">
<path fill="#000000" opacity="1.000000" stroke="none" 
	d="
M146.726440,565.657349 
	C148.842407,565.459351 150.493134,565.267639 152.144180,565.078796 
	C159.466537,564.240967 161.510162,565.806213 163.198807,573.052124 
	C163.850204,575.847229 161.965515,576.997986 160.366653,578.347717 
	C154.683746,583.145081 148.938660,587.868835 143.522797,593.616699 
	C150.878006,593.247925 158.253632,593.098389 165.579575,592.415710 
	C169.109299,592.086853 171.245544,592.758362 172.439697,596.318909 
	C173.607117,599.799744 175.390121,602.674133 171.256607,605.906311 
	C161.958252,613.177002 153.104843,621.015930 144.043427,628.591492 
	C142.927475,629.524475 141.884689,630.704834 140.231735,630.682190 
	C134.978592,623.986938 135.128723,622.037109 141.242905,616.954102 
	C146.711548,612.407837 152.171799,607.851440 158.406357,602.657532 
	C149.693375,603.076233 141.954651,603.283508 134.247543,603.891602 
	C130.671600,604.173767 128.352966,603.640259 126.860687,599.872437 
	C125.380394,596.134888 125.966461,593.784546 129.132568,591.326904 
	C135.244705,586.582458 141.075958,581.476135 148.111816,575.613098 
	C139.569229,576.181641 132.493347,576.653259 125.417366,577.123230 
	C117.744705,577.632751 116.550034,576.625732 115.136307,567.893616 
	C125.463982,566.317688 135.914719,566.550720 146.726440,565.657349 
z"/>
<path fill="#000000" opacity="1.000000" stroke="none" 
	d="
M277.162720,750.651245 
	C276.320190,748.010010 274.198486,748.291016 272.508209,747.841553 
	C267.609344,746.538879 263.608673,744.030334 261.579315,739.197632 
	C260.643799,736.969666 259.325714,736.589111 256.975616,736.588623 
	C243.544952,736.586121 237.303680,725.811279 243.844208,714.133667 
	C246.282898,709.779602 248.974152,705.566101 251.378616,701.194092 
	C253.368576,697.575806 255.590454,699.173462 257.985504,700.551758 
	C260.414917,701.949890 262.757568,703.126160 260.526794,706.613586 
	C258.018829,710.534363 255.731857,714.604919 253.512970,718.699341 
	C251.808609,721.844360 251.058289,725.098022 254.812347,727.426392 
	C258.584656,729.766052 261.606201,728.215698 263.768250,724.960144 
	C266.342285,721.084351 268.716492,717.058960 270.927460,712.963440 
	C273.296234,708.575806 275.756897,711.372192 278.329437,712.545349 
	C281.159760,713.835999 282.030273,715.451111 280.178833,718.354309 
	C277.676697,722.277771 275.436707,726.371643 273.162659,730.436279 
	C271.395020,733.595886 270.486359,736.831055 274.515076,738.969055 
	C278.189514,740.919067 281.356384,739.831177 283.563538,736.414429 
	C285.999481,732.643677 288.367188,728.815491 290.514954,724.876160 
	C292.187653,721.808228 294.000458,721.366760 296.864532,723.382446 
	C299.349609,725.131531 302.246613,726.143738 299.693878,730.187378 
	C295.522308,736.795410 291.491852,743.521301 287.896454,750.453979 
	C285.573151,754.933594 283.064270,755.279419 279.426239,752.372864 
	C278.778717,751.855530 278.065308,751.420776 277.162720,750.651245 
z"/>
<path fill="#000000" opacity="1.000000" stroke="none" 
	d="
M142.572067,409.166016 
	C152.091293,414.454071 155.717850,422.016327 154.109161,433.784363 
	C153.322754,439.537079 151.802444,445.187378 150.687714,450.898346 
	C150.182785,453.485260 149.071365,454.538422 146.203384,453.926971 
	C134.825073,451.501221 123.412666,449.231171 111.992310,447.009277 
	C108.482208,446.326324 107.265762,444.744171 108.217690,441.088013 
	C109.598076,435.786255 110.350174,430.323059 111.666969,425.002167 
	C115.383995,409.982574 127.775703,403.547943 142.572067,409.166016 
M141.329269,421.138062 
	C136.307739,417.493988 130.865601,416.644318 125.553741,419.975250 
	C119.995842,423.460510 119.826004,429.698334 119.014740,435.408386 
	C118.772049,437.116547 120.296310,437.428406 121.668106,437.701965 
	C127.671150,438.898956 133.663452,440.149689 139.662674,441.365967 
	C141.175278,441.672638 142.956512,441.917786 143.390366,440.012238 
	C144.812973,433.764008 147.035568,427.378510 141.329269,421.138062 
z"/>
<path fill="#000000" opacity="1.000000" stroke="none" 
	d="
M697.654053,415.693726 
	C699.432312,423.786011 699.420837,423.764160 692.613831,427.339447 
	C688.799683,429.342743 685.031006,431.432739 680.090759,434.106781 
	C686.293884,435.451843 691.333252,436.684235 696.429871,437.597198 
	C699.479492,438.143524 701.752502,439.017120 702.281067,442.566467 
	C702.794189,446.012360 701.849976,448.101166 698.505249,449.623444 
	C693.886414,451.725647 689.539001,454.424347 684.317383,457.282440 
	C690.173950,459.841522 695.727234,459.764832 700.873779,461.270203 
	C702.742554,461.816742 704.983032,461.811340 705.304504,464.489716 
	C705.535034,466.410248 707.022095,468.456146 705.543762,470.217010 
	C704.090942,471.947632 702.073364,470.572174 700.386597,470.251404 
	C692.066406,468.669281 683.789490,466.857483 675.462402,465.315247 
	C672.603699,464.785797 671.000977,463.575806 670.708496,460.553223 
	C670.399597,457.361053 669.693359,454.384644 673.619202,452.551300 
	C677.919922,450.542908 682.272644,448.493042 686.816101,444.822449 
	C681.030090,443.524414 676.105835,442.260529 671.116089,441.360199 
	C668.137695,440.822815 667.441284,438.839386 667.119263,436.430603 
	C666.797119,434.021149 665.796204,431.317505 668.700195,429.734772 
	C677.607300,424.880310 686.548645,420.088165 695.508179,415.331055 
	C695.993103,415.073578 696.765259,415.357239 697.654053,415.693726 
z"/>
<path fill="#000000" opacity="1.000000" stroke="none" 
	d="
M667.700806,530.912292 
	C670.568359,525.869202 670.168701,520.587830 670.647644,515.486877 
	C670.913879,512.651611 672.256958,511.957336 675.025818,512.430420 
	C687.486816,514.559631 699.957886,516.654480 712.471375,518.438477 
	C716.801025,519.055786 716.400940,521.527039 715.938721,524.498352 
	C715.451050,527.633728 714.609985,529.958496 710.517273,528.828491 
	C707.670288,528.042480 704.651917,527.877197 701.033081,527.332764 
	C702.880066,534.834778 702.153015,541.538574 696.453491,546.775452 
	C692.969177,549.976929 688.641724,551.265747 683.986755,550.894348 
	C672.859985,550.006531 666.663940,542.476074 667.700806,530.912292 
M682.895203,525.037903 
	C678.122314,526.585205 675.775391,529.769226 676.553589,533.641418 
	C677.417725,537.941833 681.375977,540.377258 686.534302,539.862976 
	C690.960876,539.421570 692.993713,536.551086 693.446716,532.586243 
	C693.877747,528.814026 690.419922,525.658752 685.710938,525.027466 
	C685.055115,524.939453 684.381531,524.984131 682.895203,525.037903 
z"/>
<path fill="#000000" opacity="1.000000" stroke="none" 
	d="
M246.595825,278.356873 
	C241.870575,271.494934 237.352951,264.926422 232.838760,258.355591 
	C229.175140,253.022812 231.080185,248.862549 237.799515,248.437805 
	C239.458084,248.332947 239.544083,247.713638 240.155258,246.834549 
	C245.069443,239.766479 252.379456,236.891113 259.532562,239.154449 
	C266.620239,241.397079 272.084778,248.591766 272.300537,255.964951 
	C272.511627,263.180481 267.847076,269.390472 260.028381,272.305969 
	C259.108856,272.648865 258.192780,273.001190 257.051636,273.433868 
	C257.424988,276.894287 259.918457,279.062042 261.592621,281.568542 
	C264.224579,285.508972 260.752899,286.384308 258.723450,288.003571 
	C256.524902,289.757843 254.518860,290.512634 252.669418,287.310974 
	C250.929840,284.299438 248.776306,281.526978 246.595825,278.356873 
M245.500443,256.367065 
	C245.845612,258.189514 246.584854,259.839142 247.686554,261.327271 
	C250.453110,265.064301 255.077347,265.962952 258.605560,263.452118 
	C261.979980,261.050659 262.747101,256.638123 260.405548,252.842407 
	C258.637451,249.976288 256.209167,247.967850 252.672150,248.438370 
	C248.573380,248.983582 246.294235,251.647263 245.500443,256.367065 
z"/>
<path fill="#000000" opacity="1.000000" stroke="none" 
	d="
M120.771118,517.039185 
	C116.132080,517.155029 111.961998,517.117676 107.808556,517.362488 
	C103.827492,517.597168 103.689926,515.116028 103.616302,512.217224 
	C103.543747,509.360260 103.409500,506.857391 107.452560,506.810944 
	C110.564011,506.775177 113.750252,507.149445 116.760468,506.209442 
	C117.360023,504.802002 116.465118,503.868744 116.063431,502.823914 
	C113.396278,495.886230 114.950439,488.768921 120.157631,484.071625 
	C125.365929,479.373322 133.730804,478.315979 140.272659,481.529022 
	C146.464035,484.569946 150.312500,491.204163 149.130859,498.501617 
	C148.520050,502.273895 148.336761,505.722656 149.257690,509.427002 
	C150.358856,513.856201 148.771194,516.103760 143.692261,516.073364 
	C136.212753,516.028625 128.729187,516.663757 120.771118,517.039185 
M140.354462,496.145538 
	C137.777893,490.803436 133.078644,488.955444 128.157715,491.349243 
	C124.214661,493.267395 122.538483,497.671570 124.351059,501.351196 
	C126.475777,505.664459 131.833252,507.196106 136.418411,504.739838 
	C139.544067,503.065430 140.839783,500.372101 140.354462,496.145538 
z"/>
<path fill="#000000" opacity="1.000000" stroke="none" 
	d="
M384.232147,238.058838 
	C381.666809,237.435501 381.707184,235.683472 381.613983,234.014389 
	C380.974518,222.564255 380.238403,211.118256 379.740936,199.661911 
	C379.447021,192.892273 382.015228,190.876663 388.361816,193.074310 
	C390.135162,193.688370 391.222839,193.740784 392.859741,193.029907 
	C400.210876,189.837387 408.223022,191.589310 412.835022,197.202194 
	C417.440063,202.806610 418.078094,212.281357 414.254517,218.281235 
	C410.124329,224.762253 402.560211,227.377899 394.575256,225.067810 
	C393.795776,224.842300 393.047668,224.508377 392.021912,224.126953 
	C390.983765,226.126389 391.387299,228.085846 391.586853,229.974152 
	C392.409210,237.756989 392.328979,237.877090 384.232147,238.058838 
M395.377960,216.486526 
	C396.357666,216.642715 397.339447,216.944443 398.316711,216.930481 
	C403.115997,216.861877 405.845367,213.998672 405.944427,209.037888 
	C406.043671,204.068146 403.341675,200.686249 399.004425,200.351593 
	C394.610931,200.012589 390.902405,203.038666 390.570892,207.668228 
	C390.322937,211.131348 391.491516,214.202194 395.377960,216.486526 
z"/>
<path fill="#000000" opacity="1.000000" stroke="none" 
	d="
M383.269958,746.279114 
	C395.502075,749.320801 400.376526,756.718079 398.692596,768.890686 
	C397.827271,775.145935 397.050751,781.421936 396.529083,787.712952 
	C396.239105,791.209900 394.873993,792.286072 391.403687,791.745850 
	C388.026489,791.220154 385.117218,790.930481 385.700348,786.281372 
	C386.548004,779.524109 387.353027,772.746277 387.752014,765.952332 
	C388.141998,759.311462 386.066376,756.461365 381.009735,755.474243 
	C375.471527,754.393188 371.205017,757.698364 370.388062,763.940735 
	C369.568268,770.204285 368.724304,776.480957 368.336212,782.779358 
	C368.047729,787.461792 366.412476,789.063782 361.500305,788.480713 
	C356.711517,787.912231 356.883057,785.660583 357.476868,782.030029 
	C358.441315,776.133667 358.931274,770.158997 359.595306,764.214478 
	C361.135010,750.430664 368.791107,744.487305 383.269958,746.279114 
z"/>
<path fill="#000000" opacity="1.000000" stroke="none" 
	d="
M619.632446,694.064331 
	C614.183044,696.270142 609.729187,694.784119 605.831482,691.465149 
	C601.524292,687.797485 597.519958,683.775330 593.235291,680.079590 
	C589.858032,677.166565 592.215759,675.355408 594.086182,673.139771 
	C596.087402,670.769165 597.876709,669.546936 600.594604,672.248535 
	C603.780457,675.415405 607.123779,678.430847 610.498413,681.398682 
	C613.403992,683.953979 616.618591,685.147644 619.747681,681.849731 
	C622.792114,678.641052 622.523682,675.163940 619.535095,672.083984 
	C616.175415,668.621521 612.644165,665.319641 609.091003,662.052917 
	C606.505859,659.676086 607.978699,657.942993 609.841675,656.294861 
	C611.636597,654.706909 612.924561,651.280334 616.212280,654.314453 
	C626.470337,663.781250 636.743103,673.232178 646.475464,682.196777 
	C646.895996,683.992798 646.331848,684.625061 645.797424,685.258606 
	C640.683044,691.321533 640.691833,691.309937 634.841492,685.889038 
	C633.393738,684.547607 631.858459,683.300598 629.996094,681.693115 
	C627.506409,686.761780 625.147522,691.555481 619.632446,694.064331 
z"/>
<path fill="#000000" opacity="1.000000" stroke="none" 
	d="
M680.972656,498.763733 
	C683.378723,502.772217 680.455994,504.356628 678.160400,505.769531 
	C675.330444,507.511322 674.278992,504.763306 673.399597,502.992889 
	C669.495544,495.133087 670.349304,487.493225 675.328003,480.425751 
	C679.068787,475.115631 686.423645,473.006226 693.230652,474.843933 
	C701.649231,477.116699 707.034851,485.591125 705.704285,494.471405 
	C704.318848,503.718323 697.838013,509.493622 689.281982,509.412384 
	C686.095032,509.382111 684.891113,508.204529 684.797424,505.010773 
	C684.613281,498.727936 686.172058,492.481995 685.340149,486.147308 
	C680.240662,487.179352 679.061401,490.528717 680.972656,498.763733 
M694.539856,486.261444 
	C693.480286,485.738983 692.417847,485.762054 692.339539,487.127747 
	C692.119873,490.960938 691.317139,494.850891 692.615601,498.783295 
	C698.396790,495.581146 699.045654,491.947449 694.539856,486.261444 
z"/>
<path fill="#000000" opacity="1.000000" stroke="none" 
	d="
M269.095276,236.263092 
	C271.555481,225.510864 278.696014,219.491516 288.256958,219.671646 
	C292.278503,219.747406 295.718109,221.203522 298.657227,223.845963 
	C305.042023,229.586319 304.674774,232.048920 297.088745,235.798782 
	C292.922852,237.858032 288.824890,240.055771 284.721893,242.239136 
	C284.343536,242.440475 284.151123,242.991241 283.874695,243.376511 
	C287.661316,246.545837 292.076721,245.737701 296.132568,241.114624 
	C297.321350,239.759598 298.054169,238.140335 300.480652,238.649750 
	C305.632141,239.731247 306.546661,241.912766 303.369537,246.235779 
	C298.833160,252.408279 288.677185,256.054962 281.528442,254.078186 
	C274.461090,252.123901 270.070343,246.003006 269.095276,236.263092 
M280.528839,236.209808 
	C284.335663,234.848373 288.053741,233.330536 291.400635,230.511169 
	C288.600647,227.485809 285.710083,227.797607 283.009430,229.318893 
	C280.565521,230.695572 278.162964,232.501160 280.528839,236.209808 
z"/>
<path fill="#000000" opacity="1.000000" stroke="none" 
	d="
M530.044800,248.551743 
	C520.672363,252.144806 509.071594,246.852203 505.065247,237.556000 
	C501.840302,230.072922 505.520538,220.284683 513.082214,216.233368 
	C519.227295,212.941025 527.814575,214.068115 533.609558,218.927612 
	C538.728027,223.219788 540.512756,229.961395 538.613708,236.530930 
	C537.495117,240.400528 535.867981,241.739319 531.847961,239.755890 
	C526.647766,237.190170 521.191406,235.142654 515.832947,232.901657 
	C515.582275,232.796799 515.210999,232.980347 514.896729,233.034729 
	C514.770691,237.750168 518.016113,241.284653 523.725525,241.052719 
	C529.480164,240.818954 530.480896,243.700653 530.044800,248.551743 
M518.313416,224.226624 
	C517.808899,224.716003 517.359802,225.591217 517.877686,225.923767 
	C521.370483,228.166840 525.034302,230.032425 529.450684,230.539658 
	C528.743042,224.004120 525.628845,222.217300 518.313416,224.226624 
z"/>
<path fill="#000000" opacity="1.000000" stroke="none" 
	d="
M169.808075,315.021271 
	C176.987411,306.189850 184.993927,304.425323 193.152161,309.392059 
	C196.067200,311.166718 196.662735,312.869659 194.494247,315.735779 
	C190.631760,320.840851 187.024414,326.138947 182.884842,331.954071 
	C188.902557,332.644104 191.512680,329.691528 193.417114,325.799011 
	C194.064697,324.475403 194.175583,322.898956 194.735001,321.520508 
	C195.855850,318.758636 198.403061,318.965790 200.665283,319.134094 
	C202.760818,319.290039 203.327652,321.113953 203.129776,322.834778 
	C202.183151,331.067078 197.779648,337.055908 190.523773,340.787476 
	C184.520111,343.875061 177.287415,342.441803 172.077682,337.606995 
	C165.849777,331.827209 164.962540,323.813599 169.808075,315.021271 
M175.748444,325.382874 
	C176.396957,326.623322 177.133148,328.056763 178.550812,326.241974 
	C180.844666,323.305573 182.964615,320.233307 185.312805,317.005615 
	C178.718781,315.651459 176.004028,317.999786 175.748444,325.382874 
z"/>
<path fill="#000000" opacity="1.000000" stroke="none" 
	d="
M187.949738,649.040527 
	C189.492569,650.922913 190.142792,653.194397 192.469574,653.877258 
	C194.631134,649.002930 193.354904,644.636353 188.081223,641.938354 
	C184.106445,639.904907 184.061035,637.181519 185.761963,634.219482 
	C187.733032,630.786987 190.581253,633.078491 192.573883,634.360474 
	C199.277069,638.673218 203.385422,644.833679 203.220642,652.981445 
	C203.084778,659.698914 199.418594,664.477295 193.394180,667.470276 
	C185.358322,671.462708 176.075912,668.533386 170.969391,660.332092 
	C165.979996,652.318909 167.574112,643.237549 174.771881,637.625183 
	C176.972672,635.909180 178.468262,635.931458 180.091415,638.271423 
	C182.556870,641.825500 185.188721,645.264221 187.949738,649.040527 
M179.914902,649.227051 
	C178.887802,647.829712 178.050278,648.140991 177.416611,649.549988 
	C176.107437,652.460938 176.857803,655.041687 178.891479,657.286865 
	C180.900742,659.505066 183.256622,660.458923 186.816299,658.811829 
	C184.457245,655.520081 182.373428,652.612366 179.914902,649.227051 
z"/>
<path fill="#000000" opacity="1.000000" stroke="none" 
	d="
M669.178040,603.341431 
	C661.429993,601.970093 661.139771,601.437378 663.440857,594.762268 
	C665.260925,589.482483 667.843933,584.454407 669.014709,578.845581 
	C663.823242,579.235107 661.316101,582.314392 661.069214,588.208069 
	C660.995544,589.966858 661.865540,592.029419 660.088379,593.337585 
	C658.492004,594.512695 656.580933,595.639709 654.579956,595.202576 
	C652.661133,594.783508 652.699280,592.655762 652.349304,591.081726 
	C649.668091,579.022339 661.778259,565.640137 673.126526,568.088135 
	C682.868652,570.189697 688.621582,577.727783 687.640930,587.106506 
	C686.616455,596.904114 679.655396,603.181152 669.178040,603.341431 
M674.858521,593.234314 
	C680.482483,588.780701 680.938782,584.650757 675.787231,581.010437 
	C674.866272,583.358765 673.964966,585.600037 673.111084,587.859131 
	C672.705750,588.931335 672.400269,590.040955 672.032776,591.127930 
	C671.305176,593.280334 672.292236,593.826172 674.858521,593.234314 
z"/>
<path fill="#000000" opacity="1.000000" stroke="none" 
	d="
M167.071304,391.696106 
	C165.925415,395.464996 164.320557,398.549561 161.977707,401.215759 
	C156.292160,407.685913 146.736664,408.724670 139.352295,403.699402 
	C132.220551,398.846008 130.182327,388.843750 134.618561,380.469391 
	C138.714355,372.737640 146.965179,369.534271 155.004730,372.341675 
	C157.925034,373.361450 158.490479,374.928833 157.358521,377.639038 
	C156.076981,380.707336 154.985779,383.855591 153.830063,386.975830 
	C152.743637,389.908966 151.680969,392.850922 150.558685,395.923645 
	C155.863312,395.957977 158.542023,392.843109 158.868042,386.963165 
	C158.966125,385.194183 158.000061,383.148895 159.535599,381.704956 
	C160.997131,380.330658 162.921631,379.305664 164.951874,379.555115 
	C167.356003,379.850586 167.042526,382.133972 167.433075,383.870789 
	C167.999557,386.390015 167.435089,388.837067 167.071304,391.696106 
M145.064148,381.614136 
	C139.795578,385.713684 139.272263,389.148254 143.505157,393.367401 
	C146.255219,390.518372 146.860352,386.693085 148.104004,383.237885 
	C148.834427,381.208588 147.136871,381.244385 145.064148,381.614136 
z"/>
<path fill="#000000" opacity="1.000000" stroke="none" 
	d="
M211.958466,696.603149 
	C215.176224,688.599365 221.224976,683.142334 226.664078,677.433167 
	C230.095963,673.830872 232.789612,678.726135 234.212967,680.908142 
	C235.623306,683.070007 237.246262,683.946594 239.229309,685.007568 
	C241.106323,686.011658 242.933548,687.281738 244.435059,688.782715 
	C249.085846,693.431519 249.629944,699.214417 246.049973,703.577942 
	C242.518478,707.882446 237.528351,708.303162 231.745941,704.529236 
	C228.888123,702.664124 226.266785,700.436646 223.419647,698.283264 
	C221.589859,703.354553 223.436798,706.190369 229.546524,708.864380 
	C231.052628,709.523499 233.292084,709.193604 233.518387,711.872620 
	C233.897491,716.360779 231.595154,718.430786 227.320572,717.055542 
	C219.730469,714.613586 209.742844,705.911011 211.958466,696.603149 
M234.654083,690.537354 
	C232.559250,690.031311 230.016815,689.234558 228.886658,691.548889 
	C227.614761,694.153381 230.708893,694.945923 232.043503,696.369202 
	C232.781830,697.156677 233.959503,697.856323 235.006088,697.967896 
	C237.783112,698.264160 239.037582,696.819580 238.250214,694.083740 
	C237.831451,692.628601 236.615005,691.660339 234.654083,690.537354 
z"/>
<path fill="#000000" opacity="1.000000" stroke="none" 
	d="
M128.383316,553.885254 
	C120.973366,548.998108 118.667908,542.074524 119.912048,534.147522 
	C120.952293,527.519653 125.333580,523.351746 131.865753,521.418945 
	C135.098404,520.462463 136.710831,521.040527 137.492584,524.662537 
	C138.851212,530.957214 139.269714,537.477905 141.753250,544.008972 
	C145.997879,540.535583 146.096970,536.653076 144.091019,532.399292 
	C143.457428,531.055786 142.445175,529.894714 141.762253,528.569702 
	C140.275513,525.685181 142.909744,524.328125 144.283615,522.715271 
	C145.777206,520.961792 147.422501,522.216858 148.516403,523.494446 
	C153.631744,529.468445 155.430817,536.331482 153.255707,543.954346 
	C151.267563,550.921936 146.228424,554.644226 139.318039,555.999451 
	C135.569443,556.734497 132.043518,555.859253 128.383316,553.885254 
M131.936508,545.167053 
	C133.171631,545.582764 134.575378,545.657166 134.242401,543.918396 
	C133.525436,540.174622 133.833420,536.124878 131.526962,532.705444 
	C126.819130,535.965576 126.820473,540.469421 131.936508,545.167053 
z"/>
<path fill="#000000" opacity="1.000000" stroke="none" 
	d="
M663.659058,607.275024 
	C666.444214,608.849792 668.911682,610.237061 671.371643,611.637512 
	C676.856750,614.760071 677.123047,619.569275 671.514709,622.617920 
	C669.513489,623.705688 669.499329,624.742126 669.328796,626.345276 
	C668.094177,637.949280 658.495239,643.315979 648.079041,638.132019 
	C643.461121,635.833679 639.040100,633.141113 634.436462,630.811890 
	C631.604187,629.378845 630.687256,627.615417 632.663025,624.915771 
	C634.334106,622.632385 634.856262,618.332703 639.494507,621.216919 
	C643.167358,623.500854 646.998230,625.539490 650.820251,627.571777 
	C654.373108,629.460999 657.847961,630.033752 660.395752,625.950928 
	C662.674561,622.299377 661.778503,618.995239 657.508911,616.282349 
	C653.719238,613.874268 649.806763,611.620483 645.786621,609.624756 
	C641.671753,607.581909 643.772766,605.238708 644.979065,602.707092 
	C646.313354,599.907043 647.800110,598.344543 651.093262,600.339661 
	C655.076721,602.752869 659.247986,604.856079 663.659058,607.275024 
z"/>
<path fill="#000000" opacity="1.000000" stroke="none" 
	d="
M516.037842,753.147339 
	C518.350098,752.143982 518.950623,748.654175 522.003845,749.862244 
	C526.309204,751.565613 526.906311,755.128906 523.381348,758.249878 
	C519.008789,762.121338 513.819214,764.424927 508.064392,764.938477 
	C502.870056,765.401978 498.526764,763.333008 496.004944,758.563354 
	C492.884216,752.660889 490.732880,746.337646 488.681244,740.003662 
	C487.824097,737.357361 491.680267,733.719238 495.468201,734.491882 
	C498.235718,735.056335 499.283600,733.904724 500.865540,732.478333 
	C503.426636,730.169128 506.647736,729.178894 509.992584,728.806763 
	C514.972168,728.252808 519.230042,730.774658 520.749695,735.130310 
	C522.371826,739.779419 521.063660,743.570557 517.186157,746.607910 
	C513.604919,749.413147 508.999390,750.109375 504.821655,752.578613 
	C508.432404,757.374573 512.086975,755.404663 516.037842,753.147339 
M504.915222,745.105469 
	C506.140533,744.598450 507.414124,744.182129 508.579346,743.562134 
	C510.172485,742.714539 512.125244,741.889771 511.289429,739.514404 
	C510.648163,737.692017 509.032166,737.106995 507.228912,737.456482 
	C504.400757,738.004517 502.353882,739.682068 501.595703,742.470642 
	C501.047211,744.487976 501.920776,745.717285 504.915222,745.105469 
z"/>
<path fill="#000000" opacity="1.000000" stroke="none" 
	d="
M238.281830,287.737183 
	C232.643600,297.890076 224.198349,302.258209 215.739883,299.705536 
	C206.580109,296.941223 201.281128,287.464630 203.916580,278.561005 
	C206.920044,268.414062 217.732758,262.168060 227.342148,265.029114 
	C236.775116,267.837646 241.276947,276.912537 238.281830,287.737183 
M215.370270,287.027527 
	C218.060287,289.792999 220.993134,291.760040 225.021683,289.785919 
	C229.181091,287.747711 230.685638,283.371002 228.633896,279.393341 
	C226.278320,274.826630 221.485260,272.947083 217.460083,275.011658 
	C213.239182,277.176636 212.354523,281.165405 215.370270,287.027527 
z"/>
<path fill="#000000" opacity="1.000000" stroke="none" 
	d="
M588.394165,719.672241 
	C588.973450,724.138123 585.316101,725.111877 582.847595,726.509460 
	C580.197449,728.009583 579.319763,724.791565 578.074646,723.299255 
	C573.593872,717.929382 569.316040,712.390930 564.908447,706.959229 
	C560.619385,701.673645 561.440430,698.096497 568.008362,696.419861 
	C570.195618,695.861450 570.899231,694.853088 571.847412,693.315674 
	C577.596558,683.993408 588.500183,682.849487 595.726135,690.928467 
	C599.385376,695.019653 602.653687,699.458313 606.159851,703.689209 
	C609.198364,707.355774 605.665955,708.459167 603.731445,710.253967 
	C601.689880,712.148132 599.868652,713.397705 597.635437,710.318848 
	C594.998047,706.682861 592.130005,703.206238 589.233948,699.768372 
	C586.681396,696.738281 583.751465,694.629761 579.838440,697.723022 
	C576.617249,700.269287 576.386902,703.770813 579.363831,707.891418 
	C582.190125,711.803467 585.251892,715.545471 588.394165,719.672241 
z"/>
<path fill="#000000" opacity="1.000000" stroke="none" 
	d="
M466.375519,230.546417 
	C451.119019,231.772446 441.130188,220.322144 445.607971,207.277161 
	C448.248993,199.583115 456.306519,194.878082 464.630280,196.169403 
	C474.698792,197.731415 481.115845,204.221603 481.289246,213.018127 
	C481.466431,222.008026 475.848816,228.766129 466.375519,230.546417 
M458.898102,220.766190 
	C459.672119,221.049713 460.425598,221.483734 461.223450,221.592453 
	C466.531189,222.315659 470.170380,219.291656 470.639984,213.841370 
	C471.075653,208.784912 467.710693,205.101807 462.705048,205.156296 
	C458.027740,205.207214 455.049500,208.959152 455.246368,214.385666 
	C455.337006,216.884186 456.235809,218.879456 458.898102,220.766190 
z"/>
<path fill="#000000" opacity="1.000000" stroke="none" 
	d="
M663.177979,355.118439 
	C662.174744,351.825836 664.389587,350.046112 666.319458,348.867432 
	C668.401794,347.595673 669.854309,349.974487 671.250183,351.281433 
	C673.957275,353.816010 675.914917,356.886200 677.353577,360.308350 
	C681.155151,369.350983 678.914001,375.722443 670.207031,380.192169 
	C666.508972,382.090515 662.719482,383.810883 658.969788,385.608551 
	C653.168335,388.389862 650.197083,387.024292 649.733765,380.660370 
	C649.569275,378.400848 648.879028,377.201141 647.476440,375.746552 
	C644.759705,372.929199 643.068115,369.481873 642.741089,365.533630 
	C642.344849,360.749390 644.048645,357.045380 648.699646,355.109131 
	C653.175354,353.245850 656.779114,354.760651 659.912842,358.066803 
	C662.134399,360.410645 663.309204,363.368042 664.771790,366.163696 
	C665.362488,367.292755 665.608887,368.756897 667.159607,369.125305 
	C671.126282,365.159851 670.093872,361.399719 663.177979,355.118439 
M656.619324,373.785461 
	C659.521973,374.032135 660.872681,373.049957 659.372253,370.091705 
	C658.206116,367.792664 657.551270,364.910309 654.391113,364.440613 
	C652.887024,364.217072 651.774780,365.173676 651.561157,366.639587 
	C651.091858,369.859497 652.872009,371.919067 655.463806,373.450623 
	C655.604004,373.533447 655.770874,373.571014 656.619324,373.785461 
z"/>
<path fill="#000000" opacity="1.000000" stroke="none" 
	d="
M632.945190,331.961121 
	C631.539612,332.901978 630.320679,333.514435 629.338501,334.391937 
	C625.809998,337.544342 623.722778,336.016113 621.544434,332.580841 
	C619.746582,329.745636 619.738708,327.942047 622.706482,326.058167 
	C629.164795,321.958435 635.474670,317.625702 641.894958,313.464996 
	C647.012451,310.148560 650.961060,311.756927 651.728943,318.009644 
	C652.007446,320.277313 652.911316,321.096130 654.358765,322.190765 
	C663.763184,329.302551 663.711914,339.713715 654.160828,346.627136 
	C649.986938,349.648376 645.544250,352.296234 641.332703,355.268158 
	C637.983887,357.631287 636.654053,355.366547 635.164673,352.967743 
	C633.759155,350.703918 631.704895,348.662140 635.403442,346.441223 
	C639.390503,344.047089 643.182739,341.325806 647.034180,338.709320 
	C650.104309,336.623535 651.800293,334.004395 649.871887,330.252289 
	C648.081482,326.768372 644.299683,325.527374 640.505981,327.392120 
	C637.979736,328.633789 635.655273,330.285889 632.945190,331.961121 
z"/>
<path fill="#000000" opacity="1.000000" stroke="none" 
	d="
M629.464722,288.489624 
	C642.904419,302.095032 633.712097,316.582275 623.139587,319.206085 
	C615.041504,321.215790 606.228760,316.781525 602.121765,308.553162 
	C598.472534,301.241943 600.053284,292.689026 605.981079,287.671082 
	C612.845581,281.860199 621.123352,282.061768 629.464722,288.489624 
M625.926819,298.589508 
	C625.435913,297.135162 624.558167,295.940735 623.341248,295.036316 
	C619.907288,292.484131 616.540955,292.867432 613.394592,295.524475 
	C610.197510,298.224365 608.583618,301.555634 610.765442,305.571808 
	C612.615967,308.978088 615.676331,310.441437 619.545837,309.426025 
	C623.869568,308.291504 626.523010,304.107239 625.926819,298.589508 
z"/>
<path fill="#000000" opacity="1.000000" stroke="none" 
	d="
M546.508057,254.562378 
	C550.246033,256.442902 550.246033,256.442902 553.142517,255.626633 
	C553.516235,253.330399 551.502075,252.601212 550.273621,251.405121 
	C548.485779,249.664429 546.502014,248.116074 544.793945,246.304535 
	C541.800781,243.130127 540.589844,239.470840 542.833740,235.367737 
	C545.183899,231.070343 549.004944,229.405975 553.740784,230.113464 
	C559.924805,231.037262 564.884766,234.368027 569.157410,238.731781 
	C570.562439,240.166779 572.834290,241.951187 569.995300,244.039276 
	C567.868042,245.603973 565.838074,248.095444 562.865723,244.588196 
	C560.398438,241.676895 557.562683,238.546692 552.685852,239.622925 
	C552.400696,243.128418 555.142212,244.316452 557.006531,245.942795 
	C563.511780,251.617661 565.134583,256.412872 561.980713,261.279053 
	C558.941833,265.967773 552.324768,266.791565 545.266602,263.290771 
	C541.196167,261.271851 537.570435,258.626099 534.736267,255.038986 
	C533.403992,253.352737 531.751282,251.514862 534.578918,249.625992 
	C536.765442,248.165390 538.775085,246.012085 541.245422,249.487518 
	C542.569458,251.350372 544.529541,252.761154 546.508057,254.562378 
z"/>
<path fill="#000000" opacity="1.000000" stroke="none" 
	d="
M583.768433,282.223083 
	C574.641541,286.634460 562.424438,275.640747 559.364868,268.880249 
	C558.407410,266.764618 559.576843,265.747101 561.248413,265.042450 
	C563.118408,264.254181 565.092224,262.419342 566.885254,265.187988 
	C568.611389,267.853271 570.517273,270.377899 573.091064,272.274719 
	C574.618591,273.400482 576.147644,275.043488 578.358215,273.471985 
	C579.029785,271.214783 577.313843,270.112305 576.183655,268.771454 
	C574.579895,266.868713 572.809204,265.097687 571.306274,263.120941 
	C568.809143,259.836700 567.854553,256.273743 570.309021,252.511292 
	C572.843750,248.625748 576.548706,246.944565 581.038940,247.885498 
	C588.289673,249.404846 593.995178,253.719147 597.148071,260.168610 
	C599.579651,265.142487 593.851868,264.238708 591.679688,265.949799 
	C587.953796,262.547119 586.237061,256.659271 579.483459,257.521851 
	C579.930664,262.086517 583.580505,263.868805 585.654785,266.666504 
	C590.308777,272.943634 589.980164,277.380920 583.768433,282.223083 
z"/>
<path fill="#000000" opacity="1.000000" stroke="none" 
	d="
M550.350891,721.879761 
	C553.494446,720.738464 556.283325,719.636047 559.126404,718.697998 
	C563.006836,717.417847 566.406189,718.362427 569.054626,721.443481 
	C571.832092,724.674683 572.307861,728.504150 570.386597,732.174438 
	C566.705750,739.206177 560.144653,742.373291 552.792419,744.102417 
	C550.050293,744.747253 549.450562,742.571899 549.070862,740.521484 
	C548.688843,738.458435 548.525879,736.322937 551.298584,735.847107 
	C553.648376,735.443848 555.801025,734.576111 557.815186,733.419556 
	C559.645020,732.368713 561.624939,731.238037 561.220398,728.059875 
	C557.228821,727.366028 553.974670,729.634644 550.534607,730.806641 
	C546.250244,732.266174 542.284668,732.383179 539.137573,728.639893 
	C536.109009,725.037476 535.865356,721.033325 538.411682,717.078430 
	C542.867920,710.157227 549.662659,706.979187 557.482910,705.579102 
	C559.747864,705.173584 560.979370,706.158264 561.154785,708.464172 
	C561.348511,711.010559 561.741394,713.649536 558.098389,714.127563 
	C554.367432,714.617188 551.084167,716.172668 548.164734,718.483337 
	C547.267456,719.193420 546.305847,720.132812 546.972290,721.457031 
	C547.685425,722.874023 548.897827,722.396118 550.350891,721.879761 
z"/>
<path fill="#000000" opacity="1.000000" stroke="none" 
	d="
M471.606049,749.228027 
	C470.061707,749.952087 468.812744,750.497131 468.797943,752.260132 
	C470.544250,754.558716 472.963959,753.618530 475.146393,753.354675 
	C483.756073,752.313843 488.917419,754.680481 490.161774,760.369995 
	C491.510468,766.536621 487.513489,771.734070 479.462646,774.258057 
	C475.945160,775.360840 472.331970,775.824280 468.656525,775.637939 
	C465.987915,775.502747 464.094177,774.543030 464.820770,771.326843 
	C465.389130,768.811218 465.812225,766.555054 469.554443,767.181824 
	C473.468719,767.837402 477.384827,767.332092 480.162598,763.761047 
	C478.631226,761.318420 476.485626,762.034973 474.611816,762.044250 
	C471.630035,762.059021 468.648499,762.518616 465.681519,761.785461 
	C458.554382,760.024292 455.918488,752.231995 460.563202,746.599365 
	C464.792664,741.470337 477.297638,738.064941 483.625763,740.174561 
	C485.831848,740.910034 486.553986,742.266235 485.997314,744.323425 
	C485.474274,746.256470 485.696808,748.850952 482.315796,748.520874 
	C478.859955,748.183350 475.350464,747.815796 471.606049,749.228027 
z"/>
<path fill="#000000" opacity="1.000000" stroke="none" 
	d="
M511.680908,196.193604 
	C514.595093,197.785461 514.510376,199.602249 512.892578,201.696091 
	C511.566559,203.412308 510.527924,205.326050 507.695129,203.736069 
	C505.424957,202.461868 503.186646,202.791641 501.953461,205.570618 
	C502.486664,207.382248 504.149261,207.546539 505.493530,207.959122 
	C508.255829,208.806946 509.187286,210.275131 508.204376,213.163361 
	C507.276031,215.891190 505.770813,217.146820 503.020782,215.964005 
	C499.726685,214.547195 498.514343,216.242126 497.690918,219.036026 
	C496.188812,224.132538 494.437988,229.159882 493.070496,234.290604 
	C492.070251,238.043579 489.910278,237.787888 487.032837,236.790100 
	C484.248291,235.824493 481.418915,235.244781 482.851257,231.129120 
	C484.269135,227.054886 485.539124,222.921555 486.679108,218.760742 
	C487.523529,215.678726 490.046173,212.499237 485.439728,209.747467 
	C483.513092,208.596527 485.861816,203.278763 488.539673,202.867905 
	C490.313690,202.595749 491.523315,202.158981 492.617706,200.612915 
	C498.058777,192.926025 502.399292,191.914154 511.680908,196.193604 
z"/>
<path fill="#000000" opacity="1.000000" stroke="none" 
	d="
M168.421967,367.627869 
	C159.409607,366.732635 150.845459,365.904480 142.301086,365.078217 
	C142.906448,357.186462 145.399139,355.109802 152.382019,355.925720 
	C157.150620,356.482910 161.937134,356.886841 167.348663,357.421906 
	C165.166550,352.452087 161.637680,349.204376 158.729660,345.543030 
	C153.694992,339.204163 153.649277,338.961334 158.887756,332.208557 
	C162.617859,333.969971 164.420273,337.698029 166.956436,340.592102 
	C171.011017,345.218872 174.615967,350.237061 178.600784,354.928589 
	C180.835114,357.559113 181.948685,359.733795 179.943039,363.309875 
	C177.877319,366.993073 175.676697,369.075317 171.342621,368.033325 
	C170.537872,367.839844 169.695297,367.803711 168.421967,367.627869 
z"/>
<path fill="#000000" opacity="1.000000" stroke="none" 
	d="
M641.832031,644.046265 
	C644.346191,645.494507 645.986877,648.294861 649.303650,645.279236 
	C651.281494,643.481018 656.168030,647.397156 655.275818,650.089600 
	C654.567383,652.227600 654.635010,653.613037 656.520264,654.700745 
	C661.026367,657.300476 658.166199,659.722229 656.523438,662.363098 
	C654.645325,665.382263 652.637695,665.515503 650.079834,663.280273 
	C649.373352,662.662903 648.396240,662.355347 647.362000,661.810059 
	C646.533752,662.841858 645.751770,663.678284 645.128845,664.619934 
	C643.749939,666.704163 642.312744,667.756958 639.867920,665.900940 
	C637.719971,664.270386 635.693481,662.754700 638.021301,659.939087 
	C640.320557,657.157959 639.539917,655.256226 636.706909,653.542114 
	C634.864990,652.427673 633.169861,651.067017 631.430359,649.787598 
	C628.637390,647.733215 626.176514,647.671204 624.514587,651.107300 
	C622.788086,654.676941 620.203796,652.685242 618.110657,651.990234 
	C615.432678,651.101074 616.269104,648.846130 616.980164,646.957214 
	C620.356018,637.989258 628.608948,635.238342 636.668152,640.393494 
	C638.345093,641.466125 639.927307,642.686707 641.832031,644.046265 
z"/>
<path fill="#000000" opacity="1.000000" stroke="none" 
	d="
M217.015488,676.848389 
	C213.694672,680.166260 210.606445,683.199768 207.535751,686.250854 
	C207.313126,686.472046 207.217987,686.821533 206.974731,687.278137 
	C207.344910,689.153870 209.992722,691.084961 207.141830,693.269226 
	C205.160477,694.787292 203.570221,696.877930 200.835495,694.308838 
	C199.521927,693.074768 198.304276,694.459412 197.475952,695.416382 
	C195.035461,698.235779 193.071198,697.468567 190.971573,694.963135 
	C189.051025,692.671448 186.181519,690.658325 189.987991,687.682007 
	C192.352890,685.832764 191.788437,683.969788 189.966675,682.242493 
	C187.491989,679.896118 188.230194,678.089478 190.465240,676.045654 
	C192.812012,673.899597 194.540482,674.455261 196.258545,676.687317 
	C198.233200,679.252808 200.086502,678.581299 202.027908,676.554199 
	C203.290115,675.236267 204.728821,674.081299 206.132935,672.906494 
	C209.170044,670.365601 211.098129,667.834351 207.026703,664.447632 
	C204.452972,662.306763 206.478836,660.165344 207.587418,658.265259 
	C208.903671,656.009155 210.737320,657.075684 212.348602,657.988037 
	C219.641525,662.117798 221.621292,669.677490 217.015488,676.848389 
z"/>
<path fill="#000000" opacity="1.000000" stroke="none" 
	d="
M317.855774,770.245483 
	C318.948608,767.595276 317.798828,766.464172 315.722321,765.887939 
	C312.697601,765.048523 311.329468,763.707581 312.502960,760.133484 
	C313.799561,756.184326 316.165466,757.181885 318.765991,757.870300 
	C319.392792,758.036255 320.038330,758.131226 320.892212,758.302368 
	C323.340057,754.579224 324.173004,750.345398 325.242981,746.231628 
	C325.900726,743.702759 324.226898,742.446289 322.050842,742.108337 
	C318.211487,741.511902 318.357758,738.835144 318.779724,736.122070 
	C319.272766,732.951843 321.903381,733.622681 323.926575,733.756226 
	C333.172272,734.366150 337.869995,741.125000 335.320435,750.030701 
	C334.497620,752.904846 333.572693,755.749695 332.698364,758.609131 
	C332.233307,760.129883 332.386261,761.311096 333.631866,762.637268 
	C336.849060,766.063049 335.467621,769.984009 330.736053,770.719299 
	C328.751129,771.027649 328.201080,772.200378 327.879456,773.618347 
	C326.906250,777.908630 324.087646,776.791199 321.326141,776.027161 
	C318.538208,775.255676 316.079742,774.286621 317.855774,770.245483 
z"/>
<path fill="#000000" opacity="1.000000" stroke="none" 
	d="
M451.560120,750.711914 
	C453.612701,754.859009 453.772644,759.033691 454.487579,763.109497 
	C454.936554,765.669006 453.961182,769.352112 458.818268,769.457520 
	C460.871185,769.502136 460.704010,772.279175 461.038391,774.002197 
	C461.307251,775.387573 461.024414,776.823364 459.371552,777.143555 
	C456.383331,777.722473 456.200684,779.522644 456.903137,781.959167 
	C457.740692,784.864319 456.034576,786.183228 453.547119,786.083374 
	C451.152740,785.987305 447.444000,788.512939 446.749237,783.835632 
	C446.219513,780.269714 444.764923,778.806335 441.121338,779.654785 
	C438.356476,780.298706 437.798920,778.494568 437.531342,776.218689 
	C437.259644,773.907715 436.878418,771.777954 440.157379,771.564270 
	C444.154175,771.303894 445.214752,769.276489 444.113342,765.517578 
	C443.562653,763.638306 443.775787,761.548828 443.465546,759.582458 
	C442.990204,756.570068 441.480713,754.353821 438.092133,755.383728 
	C433.831879,756.678711 433.213196,753.324524 432.364563,750.940857 
	C431.400757,748.233582 434.251678,747.670776 435.920441,747.117126 
	C441.612549,745.228271 447.078827,745.189331 451.560120,750.711914 
z"/>
<path fill="#000000" opacity="1.000000" stroke="none" 
	d="
M201.234100,309.788300 
	C193.739502,303.174286 186.658371,296.616913 179.236496,290.471008 
	C175.139313,287.078247 178.354050,285.200806 180.056976,282.779327 
	C181.962189,280.070190 183.746460,280.241302 186.153503,282.384735 
	C195.462845,290.674652 204.837067,298.896118 214.350708,306.949799 
	C217.845444,309.908234 215.925491,311.766632 213.910583,314.296082 
	C211.672882,317.105255 209.776550,317.788208 207.092499,314.983337 
	C205.375305,313.188873 203.377365,311.662994 201.234100,309.788300 
z"/>
<path fill="#000000" opacity="1.000000" stroke="none" 
	d="
M673.913208,386.827118 
	C681.926819,383.951843 689.572449,381.211365 696.864685,378.597565 
	C698.504272,379.481201 698.809143,380.644745 699.211121,381.718506 
	C701.590698,388.074524 701.571533,388.043640 694.946716,390.403717 
	C684.139343,394.253937 673.286682,397.990265 662.583313,402.112762 
	C658.402893,403.722870 657.433960,401.534882 656.176086,398.459564 
	C654.819885,395.143921 655.356140,393.182190 658.947876,392.046204 
	C663.858521,390.493103 668.683533,388.669525 673.913208,386.827118 
z"/>
<path fill="#000000" opacity="1.000000" stroke="none" 
	d="
M347.737061,779.557739 
	C346.224335,782.858643 348.061035,788.312500 341.217651,786.704956 
	C336.674072,785.637634 335.646881,784.042786 336.789154,779.609619 
	C339.729858,768.196716 342.265808,756.678528 344.885773,745.184631 
	C345.624146,741.945435 346.727875,740.296265 350.664642,741.395996 
	C354.242706,742.395630 356.378510,743.301514 355.287842,747.649841 
	C352.662842,758.115723 350.321381,768.652649 347.737061,779.557739 
z"/>
<path fill="#000000" opacity="1.000000" stroke="none" 
	d="
M321.504120,240.373444 
	C319.696899,241.283554 318.147766,241.864807 316.640259,242.539108 
	C314.054962,243.695465 312.639801,242.729767 311.748627,240.195862 
	C308.887146,232.059738 305.860809,223.981064 303.049835,215.827927 
	C301.891632,212.468689 305.901337,208.292633 309.933228,209.653549 
	C313.303711,210.791229 314.076385,208.610092 315.972748,207.566437 
	C317.873718,206.520248 320.087830,203.213409 322.110352,206.633972 
	C323.636841,209.215683 326.389008,212.694153 321.119263,215.219131 
	C316.175140,217.588074 316.689667,221.963440 317.968689,226.429947 
	C319.269501,230.972610 322.097168,235.094864 321.504120,240.373444 
z"/>
<path fill="#000000" opacity="1.000000" stroke="none" 
	d="
M423.096558,193.354889 
	C424.400330,191.579254 425.986755,191.640717 427.398041,192.009033 
	C431.779022,193.152359 436.034515,194.700531 440.680389,192.890900 
	C442.104614,192.336121 443.960999,193.178772 443.799866,195.086899 
	C443.593109,197.535446 444.604553,201.774490 441.574219,201.894211 
	C432.732422,202.243546 432.209778,208.207809 431.641937,214.530075 
	C431.479065,216.343552 431.425903,218.166840 431.318420,219.985382 
	C431.143250,222.949707 431.594879,226.252853 426.875732,226.018356 
	C422.597473,225.805786 420.088654,224.533707 420.665222,219.489517 
	C421.642731,210.937088 422.192780,202.335800 423.096558,193.354889 
z"/>
<path fill="#000000" opacity="1.000000" stroke="none" 
	d="
M315.630188,731.356079 
	C313.390961,741.399048 308.650635,750.223572 305.085724,759.499817 
	C303.629547,763.289001 300.941956,760.958740 298.826050,760.204590 
	C296.732971,759.458679 294.028137,758.902161 295.442291,755.452087 
	C298.907867,746.996826 302.328125,738.522888 305.729645,730.041626 
	C306.618805,727.824707 308.082123,727.458191 310.091675,728.429932 
	C311.875366,729.292542 313.656677,730.160095 315.630188,731.356079 
z"/>
<path fill="#000000" opacity="1.000000" stroke="none" 
	d="
M589.110229,283.138428 
	C593.810791,277.961578 598.364502,273.128937 602.682190,268.093933 
	C605.000000,265.391022 606.835938,266.167450 608.833801,268.248505 
	C610.682617,270.174316 613.851074,271.664795 610.722473,275.049896 
	C604.756042,281.505646 598.821838,287.992432 592.958130,294.541382 
	C590.462646,297.328522 588.616455,295.683044 586.715332,293.906464 
	C584.781555,292.099274 582.276001,290.405640 585.140747,287.410034 
	C586.401733,286.091492 587.624817,284.736725 589.110229,283.138428 
z"/>
<path fill="#000000" opacity="1.000000" stroke="none" 
	d="
M540.475342,740.609680 
	C541.152161,741.989685 541.676270,743.027283 542.186768,744.071533 
	C544.763855,749.342468 543.240295,752.167908 537.394409,753.334106 
	C535.444336,753.723083 534.623291,752.728760 533.935181,751.311523 
	C530.019165,743.247009 526.183960,735.142517 522.187195,727.118286 
	C520.623779,723.979309 522.547546,722.874817 524.833435,721.953979 
	C527.074097,721.051392 529.524475,718.456909 531.476807,722.418091 
	C534.412415,728.374207 537.368774,734.320068 540.475342,740.609680 
z"/>
<path fill="#000000" opacity="1.000000" stroke="none" 
	d="
M127.356537,470.242584 
	C127.547585,467.333649 127.744820,464.858002 127.754349,462.381561 
	C127.766838,459.132507 129.041397,457.604889 132.537552,457.690918 
	C136.054077,457.777405 136.623123,459.568542 136.387344,462.489594 
	C136.148239,465.451843 136.189041,468.435638 136.049545,471.407288 
	C135.913376,474.308044 135.263428,476.585968 131.454956,476.254761 
	C127.755882,475.933014 126.455734,474.194550 127.356537,470.242584 
z"/>
<path fill="#000000" opacity="1.000000" stroke="none" 
	d="
M355.689911,218.987915 
	C359.569885,220.146896 361.275482,222.597198 360.820435,226.147705 
	C360.483948,228.772964 358.839417,230.726913 356.062866,231.178879 
	C352.289185,231.793152 349.530609,230.419098 348.597137,226.516296 
	C347.611786,222.396561 349.986908,219.790894 355.689911,218.987915 
z"/>
<path fill="#000000" opacity="1.000000" stroke="none" 
	d="
M422.563019,748.168701 
	C428.784760,747.745056 432.310638,751.099976 430.886078,755.651367 
	C430.001862,758.476318 428.000183,760.100098 424.994598,760.201050 
	C422.203400,760.294800 420.053650,759.006531 419.155304,756.381592 
	C417.999573,753.004639 418.855530,750.143616 422.563019,748.168701 
z"/>
<path fill="#000000" opacity="1.000000" stroke="none" 
	d="
M293.519562,763.325989 
	C294.541840,763.176453 295.222626,763.033936 295.855530,763.150757 
	C299.376068,763.800781 301.694977,765.822754 301.721893,769.497864 
	C301.742462,772.305420 299.891266,774.181396 297.161652,774.674988 
	C293.824768,775.278442 291.091003,773.822876 289.906128,770.742920 
	C288.684540,767.567444 289.760193,764.853516 293.519562,763.325989 
z"/>
<path fill="#000000" opacity="1.000000" stroke="none" 
	d="
M616.752014,267.921875 
	C615.727051,267.896576 615.039734,267.912781 614.441528,267.689911 
	C610.883362,266.364471 609.136841,263.824432 609.836304,260.016602 
	C610.308167,257.447876 612.172302,255.925186 614.702271,255.893356 
	C618.249084,255.848694 620.624573,257.851166 621.448730,261.265625 
	C622.307861,264.824677 620.422729,266.868835 616.752014,267.921875 
z"/>
<path fill="#000000" opacity="1.000000" stroke="none" 
	d="
M540.379517,756.111816 
	C544.185303,754.003113 547.663879,753.716980 549.710266,757.613159 
	C551.434082,760.895020 550.029419,763.787659 546.727295,765.478271 
	C544.106445,766.820251 541.515015,766.704041 539.494568,764.330872 
	C537.137512,761.562439 537.595947,758.858765 540.379517,756.111816 
z"/>
</svg>